<?xml version="1.0" encoding="utf-8"?>
<!-- Generator: Adobe Illustrator 27.8.0, SVG Export Plug-In . SVG Version: 6.00 Build 0)  -->
<svg version="1.1" id="Layer_1" xmlns="http://www.w3.org/2000/svg" xmlns:xlink="http://www.w3.org/1999/xlink" x="0px" y="0px"
	 viewBox="0 0 800 170" style="enable-background:new 0 0 800 170;" xml:space="preserve">
<g id="Layer_2_00000018207429954143359260000017740928177105701047_">
</g>
<g id="Layer_1_00000071561292611210747730000013875291282992564141_">
	<g>
		<polygon points="133.4,155.4 108,130.1 108,46.2 36.7,46.2 11.1,20.7 133.4,20.7 		"/>
		<polygon points="482.4,155.4 507.8,130.1 507.8,46.2 579,46.2 604.7,20.7 482.4,20.7 		"/>
		<polygon points="318.2,155.8 292.8,130.3 292.8,20.7 318.2,20.7 		"/>
		<polygon points="282.2,20.7 246.2,20.7 176.8,90.2 176.8,20.7 151.4,46.4 151.4,151.5 		"/>
		<polygon points="514.5,151.5 550.4,151.5 619.8,82.1 619.8,151.5 645.3,125.9 645.3,20.7 		"/>
		<polygon points="658.1,20.7 694.1,20.7 763.5,90.2 763.5,20.7 788.9,46.4 788.9,151.5 		"/>
		<polygon points="339.1,20.7 339.1,56.7 408.6,126.1 339.1,126.1 364.8,151.5 469.9,151.5 		"/>
	</g>
</g>
</svg>
